<!-- icons.svg -->
<svg xmlns="http://www.w3.org/2000/svg" style="display:none">
  <symbol id="circle-user" viewBox="0 0 512 512">
    <path d="M399 384.2C376.9 345.8 335.4 320 288 320H224c-47.4 0-88.9 25.8-111 64.2c35.2 39.2 86.2 63.8 143 63.8s107.8-24.7 143-63.8zM0 256a256 256 0 1 1 512 0A256 256 0 1 1 0 256zm256 16a72 72 0 1 0 0-144 72 72 0 1 0 0 144z"/>
  </symbol>
  <symbol id="calendar" viewBox="0 0 512 512">
    <path d="M96 32V64H48C21.5 64 0 85.5 0 112v48H448V112c0-26.5-21.5-48-48-48H352V32c0-17.7-14.3-32-32-32s-32 14.3-32 32V64H160V32c0-17.7-14.3-32-32-32S96 14.3 96 32zM448 192H0V464c0 26.5 21.5 48 48 48H400c26.5 0 48-21.5 48-48V192z"/>
  </symbol>
  <symbol id="circle" viewBox="0 0 512 512">
    <path d="M512 256C512 397.4 397.4 512 256 512C114.6 512 0 397.4 0 256C0 114.6 114.6 0 256 0C397.4 0 512 114.6 512 256zM256 48C141.1 48 48 141.1 48 256C48 370.9 141.1 464 256 464C370.9 464 464 370.9 464 256C464 141.1 370.9 48 256 48z"/>
  </symbol>
  <symbol id="angle-left" viewBox="0 0 256 512">
    <path d="M9.4 233.4c-12.5 12.5-12.5 32.8 0 45.3l160 160c12.5 12.5 32.8 12.5 45.3 0s12.5-32.8 0-45.3L77.3 256 214.6 118.6c12.5-12.5 12.5-32.8 0-45.3s-32.8-12.5-45.3 0l-160 160z"/>
  </symbol>
  <symbol id="magnifying-glass" viewBox="0 0 512 512">
    <path d="M416 208c0 45.9-14.9 88.3-40 122.7L502.6 457.4c12.5 12.5 12.5 32.8 0 45.3s-32.8 12.5-45.3 0L330.7 376c-34.4 25.2-76.8 40-122.7 40C93.1 416 0 322.9 0 208S93.1 0 208 0S416 93.1 416 208zM208 352a144 144 0 1 0 0-288 144 144 0 1 0 0 288z"/>
  </symbol>
  <symbol id="xmark" viewBox="0 0 320 512">
    <path d="M310.6 150.6c12.5-12.5 12.5-32.8 0-45.3s-32.8-12.5-45.3 0L160 210.7 54.6 105.4c-12.5-12.5-32.8-12.5-45.3 0s-12.5 32.8 0 45.3L114.7 256 9.4 361.4c-12.5 12.5-12.5 32.8 0 45.3s32.8 12.5 45.3 0L160 301.3 265.4 406.6c12.5 12.5 32.8 12.5 45.3 0s12.5-32.8 0-45.3L205.3 256 310.6 150.6z"/>
  </symbol>
  <symbol id="bars" viewBox="0 0 448 512">
    <path d="M0 96C0 78.3 14.3 64 32 64H416c17.7 0 32 14.3 32 32s-14.3 32-32 32H32C14.3 128 0 113.7 0 96zM0 256c0-17.7 14.3-32 32-32H416c17.7 0 32 14.3 32 32s-14.3 32-32 32H32c-17.7 0-32-14.3-32-32zM448 416c0 17.7-14.3 32-32 32H32c-17.7 0-32-14.3-32-32s14.3-32 32-32H416c17.7 0 32 14.3 32 32z"/>
  </symbol>
  <symbol id="bell" viewBox="0 0 448 512">
    <path d="M224 0c-17.7 0-32 14.3-32 32V49.9C119.5 61.4 64 124.2 64 200v33.4c0 45.4-15.5 89.5-43.8 124.9L5.3 377c-5.8 7.2-6.9 17.1-2.9 25.4S14.8 416 24 416H424c9.2 0 17.6-5.3 21.6-13.6s2.9-18.2-2.9-25.4l-14.9-18.6C399.5 322.9 384 278.8 384 233.4V200c0-75.8-55.5-138.6-128-150.1V32c0-17.7-14.3-32-32-32zm0 96h8c57.4 0 104 46.6 104 104v33.4c0 47.9 13.9 94.6 39.7 134.6H72.3C98.1 328 112 281.3 112 233.4V200c0-57.4 46.6-104 104-104h8zm64 352H224 160c0 17 6.7 33.3 18.7 45.3s28.3 18.7 45.3 18.7s33.3-6.7 45.3-18.7s18.7-28.3 18.7-45.3z"/>
  </symbol>
  <symbol id="expand-arrows" viewBox="0 0 448 512">
    <path d="M448 344v112a23.94 23.94 0 0 1-24 24H312c-21.39 0-32.09-25.9-17-41l36.2-36.2L224 295.6 116.77 402.9 153 439c15.09 15.1 4.39 41-17 41H24a23.94 23.94 0 0 1-24-24V344c0-21.4 25.89-32.1 41-17l36.19 36.2L184.46 256 77.18 148.7 41 185c-15.1 15.1-41 4.4-41-17V56a23.94 23.94 0 0 1 24-24h112c21.39 0 32.09 25.9 17 41l-36.2 36.2L224 216.4l107.23-107.3L295 73c-15.09-15.1-4.39-41 17-41h112a23.94 23.94 0 0 1 24 24v112c0 21.4-25.89 32.1-41 17l-36.19-36.2L263.54 256l107.28 107.3L407 327.1c15.1-15.2 41-4.5 41 16.9z"/>
  </symbol>
  <symbol id="compress-arrows" viewBox="0 0 512 512">
    <path d="M200 288H88c-21.4 0-32.1 25.8-17 41l32.9 31-99.2 99.3c-6.2 6.2-6.2 16.4 0 22.6l25.4 25.4c6.2 6.2 16.4 6.2 22.6 0L152 408l31.1 33c15.1 15.1 40.9 4.4 40.9-17V312c0-13.3-10.7-24-24-24zm112-64h112c21.4 0 32.1-25.9 17-41l-33-31 99.3-99.3c6.2-6.2 6.2-16.4 0-22.6L481.9 4.7c-6.2-6.2-16.4-6.2-22.6 0L360 104l-31.1-33C313.8 55.9 288 66.6 288 88v112c0 13.3 10.7 24 24 24zm96 136l33-31.1c15.1-15.1 4.4-40.9-17-40.9H312c-13.3 0-24 10.7-24 24v112c0 21.4 25.9 32.1 41 17l31-32.9 99.3 99.3c6.2 6.2 16.4 6.2 22.6 0l25.4-25.4c6.2-6.2 6.2-16.4 0-22.6L408 360zM183 71.1L152 104 52.7 4.7c-6.2-6.2-16.4-6.2-22.6 0L4.7 30.1c-6.2 6.2-6.2 16.4 0 22.6L104 152l-33 31.1C55.9 198.2 66.6 224 88 224h112c13.3 0 24-10.7 24-24V88c0-21.3-25.9-32-41-16.9z"/>
  </symbol>
  <symbol id="caret-down" viewBox="0 0 320 512">
    <path d="M137.4 374.6c12.5 12.5 32.8 12.5 45.3 0l128-128c9.2-9.2 11.9-22.9 6.9-34.9s-16.6-19.8-29.6-19.8L32 192c-12.9 0-24.6 7.8-29.6 19.8s-2.2 25.7 6.9 34.9l128 128z"/>
  </symbol>
  <symbol id="user" viewBox="0 0 448 512">
    <path d="M304 128a80 80 0 1 0 -160 0 80 80 0 1 0 160 0zM96 128a128 128 0 1 1 256 0A128 128 0 1 1 96 128zM49.3 464H398.7c-8.9-63.3-63.3-112-129-112H178.3c-65.7 0-120.1 48.7-129 112zM0 482.3C0 383.8 79.8 304 178.3 304h91.4C368.2 304 448 383.8 448 482.3c0 16.4-13.3 29.7-29.7 29.7H29.7C13.3 512 0 498.7 0 482.3z"/>
  </symbol>
  <symbol id="settings" viewBox="0 0 512 512">
    <path d="M0 416c0-17.7 14.3-32 32-32l54.7 0c12.3-28.3 40.5-48 73.3-48s61 19.7 73.3 48L480 384c17.7 0 32 14.3 32 32s-14.3 32-32 32l-246.7 0c-12.3 28.3-40.5 48-73.3 48s-61-19.7-73.3-48L32 448c-17.7 0-32-14.3-32-32zm192 0a32 32 0 1 0 -64 0 32 32 0 1 0 64 0zM384 256a32 32 0 1 0 -64 0 32 32 0 1 0 64 0zm-32-80c32.8 0 61 19.7 73.3 48l54.7 0c17.7 0 32 14.3 32 32s-14.3 32-32 32l-54.7 0c-12.3 28.3-40.5 48-73.3 48s-61-19.7-73.3-48L32 288c-17.7 0-32-14.3-32-32s14.3-32 32-32l246.7 0c12.3-28.3 40.5-48 73.3-48zM192 64a32 32 0 1 0 0 64 32 32 0 1 0 0-64zm73.3 0L480 64c17.7 0 32 14.3 32 32s-14.3 32-32 32l-214.7 0c-12.3 28.3-40.5 48-73.3 48s-61-19.7-73.3-48L32 128C14.3 128 0 113.7 0 96S14.3 64 32 64l86.7 0C131 35.7 159.2 16 192 16s61 19.7 73.3 48z"/>
  </symbol>
  <symbol id="off" viewBox="0 0 512 512">
    <path d="M288 32c0-17.7-14.3-32-32-32s-32 14.3-32 32V256c0 17.7 14.3 32 32 32s32-14.3 32-32V32zM143.5 120.6c13.6-11.3 15.4-31.5 4.1-45.1s-31.5-15.4-45.1-4.1C49.7 115.4 16 181.8 16 256c0 132.5 107.5 240 240 240s240-107.5 240-240c0-74.2-33.8-140.6-86.6-184.6c-13.6-11.3-33.8-9.4-45.1 4.1s-9.4 33.8 4.1 45.1c38.9 32.3 63.5 81 63.5 135.4c0 97.2-78.8 176-176 176s-176-78.8-176-176c0-54.4 24.7-103.1 63.5-135.4z"/>
  </symbol>
  <symbol id="square" viewBox="0 0 448 512">
    <path d="M0 96C0 60.7 28.7 32 64 32H384c35.3 0 64 28.7 64 64V416c0 35.3-28.7 64-64 64H64c-35.3 0-64-28.7-64-64V96z"/>
  </symbol>
  <symbol id="clock" viewBox="0 0 512 512">
    <path d="M464 256A208 208 0 1 1 48 256a208 208 0 1 1 416 0zM0 256a256 256 0 1 0 512 0A256 256 0 1 0 0 256zM232 120V256c0 8 4 15.5 10.7 20l96 64c11 7.4 25.9 4.4 33.3-6.7s4.4-25.9-6.7-33.3L280 243.2V120c0-13.3-10.7-24-24-24s-24 10.7-24 24z"/>
  </symbol>
</svg>